# xmcd CD database file generated by Grip 3.0.5
# 
# Track frame offsets:
#       150
#       21938
#       47038
#       55255
#       67310
#       86098
#       91955
#       112363
#       143160
#       155830
#       210243
#       248120
#       263298
# 
# Disc length: 3935 seconds
# 
# Revision: 10
# Processed by: cddbd v1.5.1PL0 Copyright (c) Steve Scherf et al.
# Submitted via: Grip 3.0.5
# 
DISCID=ba0f5d0d
DTITLE=Peter Ilyich Tchaikovsky - Swan Lake - The Sleeping Beauty
DYEAR=1987
DGENRE=Classical
TTITLE0=I. Introduction: The Lilac Fairy
TTITLE1=II. Adagio. Pas d'action (Rose Adagio)
TTITLE2=III. Pas de caractere (Puss-in-Boots and the White Cat)
TTITLE3=IV. Panorama
TTITLE4=V. Valse
TTITLE5=The Three Ivans: Act III, No.28
TTITLE6=Polacca: Act III, No.22
TTITLE7=Waltz: Act I, No.2
TTITLE8=Scene: Act II, No.10
TTITLE9=Dance of the Swans: Act II, No.13
TTITLE10=Pas de deux: Act I, No.5
TTITLE11=Hungarian Dance: Act III, No.20
TTITLE12=Act IV
EXTD=
EXTT0=
EXTT1=
EXTT2=
EXTT3=
EXTT4=
EXTT5=
EXTT6=
EXTT7=
EXTT8=
EXTT9=
EXTT10=
EXTT11=
EXTT12=
PLAYORDER=
